<svg id="b1b82610-da38-4edf-9dbd-970e263e1ff9" data-name="Calque 1" xmlns="http://www.w3.org/2000/svg" viewBox="0 0 185.85 29.3"><defs><style>.\32 a83047c-cd70-454f-b37a-cfa3eb3276c4{fill:#fff;}.dd00c3b1-dcfd-4dc6-a275-7376c88dff8f{fill:#f28f5d;}</style></defs><title>logo</title><path class="2a83047c-cd70-454f-b37a-cfa3eb3276c4" d="M74.95,18.6v0.13A2.94,2.94,0,0,1,72,21.67H59.13a2.94,2.94,0,0,1-2.94-2.94V16.11H77.9V10.5a5.79,5.79,0,0,0-5.79-5.79h-13a5.79,5.79,0,0,0-5.79,5.79v8.24a5.79,5.79,0,0,0,5.79,5.79h13a5.79,5.79,0,0,0,5.79-5.79V18.6h-3Zm-18.76-8.2A2.78,2.78,0,0,1,59,7.63h13.2a2.78,2.78,0,0,1,2.78,2.78v2.78H56.19V10.41Z"/><path class="2a83047c-cd70-454f-b37a-cfa3eb3276c4" d="M129.58,18.6v0.13a2.94,2.94,0,0,1-2.94,2.94H113.76a2.94,2.94,0,0,1-2.94-2.94V16.11h21.71V10.5a5.79,5.79,0,0,0-5.79-5.79h-13a5.79,5.79,0,0,0-5.79,5.79v8.24a5.79,5.79,0,0,0,5.79,5.79h13a5.79,5.79,0,0,0,5.79-5.79V18.6h-3Zm-18.76-8.2a2.78,2.78,0,0,1,2.78-2.78h13.2a2.78,2.78,0,0,1,2.78,2.78v2.78H110.82V10.41Z"/><path class="2a83047c-cd70-454f-b37a-cfa3eb3276c4" d="M152,4.72H141.31a5.79,5.79,0,0,0-5.79,5.79v14h2.91V10.41a2.78,2.78,0,0,1,2.78-2.78H152a2.78,2.78,0,0,1,2.78,2.78V24.53h3v-14A5.79,5.79,0,0,0,152,4.72Z"/><rect class="2a83047c-cd70-454f-b37a-cfa3eb3276c4" x="161.31" y="9.43" width="2.87" height="2.87"/><path class="2a83047c-cd70-454f-b37a-cfa3eb3276c4" d="M99.65,13.24H85.7a2.78,2.78,0,0,1-2.77-2.78v0a2.77,2.77,0,0,1,.23-1.11l0.09-.18h0a2.79,2.79,0,0,1,.21-0.33h0a2.8,2.8,0,0,1,.25-0.29h0l0.14-.13h0L84,8.23h0l0.15-.11h0L84.33,8l0,0,0.16-.09h0l0.16-.07h0l0.17-.06h0l0.17,0h0l0.18,0h0l0.18,0H98.91a2.78,2.78,0,0,1,2.78,2.78v0.32h3V10.39A5.7,5.7,0,0,0,99,4.69H85.74a5.7,5.7,0,0,0,0,11.4H99a2.78,2.78,0,0,1,2.78,2.78v0A2.78,2.78,0,0,1,99,21.7H85.78A2.78,2.78,0,0,1,83,18.92V18.6H80v0.31a5.7,5.7,0,0,0,5.7,5.7H99A5.7,5.7,0,0,0,99.65,13.24Z"/><path class="2a83047c-cd70-454f-b37a-cfa3eb3276c4" d="M180.81,13.24H166.86a2.78,2.78,0,0,1-2.77-2.78v0a2.77,2.77,0,0,1,.23-1.11l0.09-.18h0a2.78,2.78,0,0,1,.21-0.33h0a2.8,2.8,0,0,1,.25-0.29h0L165,8.35h0l0.14-.12h0l0.15-.11h0L165.48,8l0,0,0.16-.09h0l0.16-.07h0L166,7.76h0l0.17,0h0l0.18,0h0l0.18,0h13.43a2.78,2.78,0,0,1,2.78,2.78v0.32h3V10.39a5.7,5.7,0,0,0-5.7-5.7H166.89a5.7,5.7,0,0,0,0,11.4h13.24a2.78,2.78,0,0,1,2.78,2.78v0a2.78,2.78,0,0,1-2.78,2.78h-13.2a2.78,2.78,0,0,1-2.78-2.78V18.6h-3v0.31a5.7,5.7,0,0,0,5.7,5.7h13.24A5.7,5.7,0,0,0,180.81,13.24Z"/><path class="dd00c3b1-dcfd-4dc6-a275-7376c88dff8f" d="M31.39,13.08l-5.8,4.31,2.18,2.94,13-9.63,2.08,2.8a3.49,3.49,0,0,1-.72,4.88l-5.73,4.26,2.18,2.93,5.64-4.19a7.26,7.26,0,0,0,1.5-10.16L41.48,5.59l-10.09,7.5h0Z"/><path class="dd00c3b1-dcfd-4dc6-a275-7376c88dff8f" d="M21.43,11.79l10-7.43a3.69,3.69,0,0,1,5,.6L39.4,2.78a7.26,7.26,0,0,0-10-1.35L19.29,8.91Z"/><path class="2a83047c-cd70-454f-b37a-cfa3eb3276c4" d="M15.71,16.21l5.8-4.31L19.33,9l-13,9.63-2.08-2.8A3.49,3.49,0,0,1,5,10.91l7-5.22L9.86,2.76,2.93,7.91a7.26,7.26,0,0,0-1.5,10.16l4.19,5.64,10.09-7.5h0Z"/><path class="2a83047c-cd70-454f-b37a-cfa3eb3276c4" d="M25.68,17.51l-10,7.43a3.69,3.69,0,0,1-5-.6L7.71,26.51a7.26,7.26,0,0,0,10,1.35l10.06-7.47Z"/><path class="2a83047c-cd70-454f-b37a-cfa3eb3276c4" d="M7,9.46l6.45-4.79a3.69,3.69,0,0,1,5,.6l2.94-2.18a7.26,7.26,0,0,0-10-1.35L4.83,6.58Z"/><path class="dd00c3b1-dcfd-4dc6-a275-7376c88dff8f" d="M40.18,19.83l-6.45,4.79a3.69,3.69,0,0,1-5-.6L25.76,26.2a7.26,7.26,0,0,0,10,1.35l6.52-4.84Z"/></svg>